# xmcd
# Copyright (C) 1995-1998 Ti Kan
#
# Track frame offsets:
#       150
#       16048
#       33023
#       48746
#       62536
#       79530
#       92240
#       109971
#       125076
#       142081
#       161135
#
# Disc length: 2306 seconds
#
# Revision: 0
# Processed by: cddbd v1.5.2PL0 Copyright (c) Steve Scherf et al.
# Submitted via: CD-Transfer v1.0
#
DISCID=9009000b
DTITLE=Natasha Bedingfield - N.b.
DYEAR=07
DGENRE=
TTITLE0=Soulmate
TTITLE1=Who Knows?
TTITLE2=Say It Again
TTITLE3=Tricky Angel
TTITLE4=Pirate Bones
TTITLE5=When You Know You Know
TTITLE6=Still Here
TTITLE7=Smell The Roses
TTITLE8=Not Givin`up
TTITLE9=Unwritten (Manny Marroquin Mix)
TTITLE10=Loved By You
EXTD=
EXTT0=
EXTT1=
EXTT2=
EXTT3=
EXTT4=
EXTT5=
EXTT6=
EXTT7=
EXTT8=
EXTT9=
EXTT10=
PLAYORDER=
